<svg xmlns="http://www.w3.org/2000/svg" xmlns:xlink="http://www.w3.org/1999/xlink" width="500" zoomAndPan="magnify" viewBox="0 0 375 374.999991" height="500" preserveAspectRatio="xMidYMid meet" version="1.0"><defs><g/></defs><g fill="#ffffff" fill-opacity="1"><g transform="translate(9.240317, 228.449782)"><g><path d="M 49.554688 -70.085938 C 51.238281 -70.511719 52.65625 -71.335938 54.046875 -72.378906 C 55.332031 -73.40625 56.363281 -74.726562 57.25 -76.355469 C 58.816406 -79.484375 58.769531 -83.386719 57.332031 -87.988281 C 55.753906 -86.707031 54.1875 -86.1875 52.878906 -86.242188 C 51.460938 -86.285156 50.324219 -86.6875 49.445312 -87.664062 C 48.46875 -88.523438 47.777344 -89.738281 47.378906 -91.210938 C 46.980469 -92.679688 46.902344 -94.191406 47.117188 -95.957031 C 47.683594 -99.285156 48.996094 -101.835938 51.179688 -103.515625 C 53.359375 -105.199219 55.824219 -106.371094 58.578125 -106.929688 C 61.332031 -107.484375 64.21875 -107.84375 67.039062 -107.863281 C 69.769531 -107.765625 72.507812 -107.5625 75.15625 -107.238281 C 77.800781 -106.914062 80.355469 -106.46875 82.8125 -105.902344 C 83.933594 -105.609375 85.058594 -105.3125 86.074219 -105.003906 C 87.089844 -104.695312 88.089844 -104.492188 89.105469 -104.183594 C 90.015625 -103.859375 91.042969 -103.445312 92.058594 -103.136719 C 92.980469 -102.707031 94.117188 -102.304688 95.371094 -101.808594 C 96.523438 -101.296875 97.777344 -100.800781 99.035156 -100.304688 C 100.289062 -99.808594 101.53125 -99.417969 102.882812 -99.042969 C 105.488281 -98.171875 108.171875 -97.523438 110.941406 -97.105469 C 113.601562 -96.675781 116.207031 -96.671875 118.535156 -97.175781 C 120.460938 -97.414062 122.226562 -98.066406 123.617188 -99.105469 C 125.023438 -100.039062 126.1875 -101.160156 127.097656 -102.578125 C 127.914062 -103.871094 128.503906 -105.25 128.746094 -106.796875 C 129.003906 -108.242188 129.03125 -109.765625 128.847656 -111.261719 C 128.582031 -112.535156 128.101562 -113.777344 127.410156 -114.996094 C 126.714844 -116.214844 125.808594 -117.402344 124.699219 -118.460938 C 123.5 -119.398438 122.191406 -120.324219 120.574219 -121.101562 C 118.972656 -121.773438 117.273438 -122.324219 115.28125 -122.621094 C 115.597656 -120.050781 115.625 -118.101562 115.167969 -116.523438 C 114.710938 -114.945312 114 -113.664062 113.023438 -112.785156 C 112.058594 -111.796875 110.839844 -111.101562 109.371094 -110.703125 C 107.898438 -110.304688 106.414062 -110.011719 104.890625 -110.042969 C 102.738281 -109.886719 100.679688 -109.847656 98.699219 -110.039062 C 96.628906 -110.109375 94.648438 -110.296875 92.765625 -110.609375 L 81.390625 -112.136719 C 77.648438 -112.542969 73.824219 -112.722656 70.027344 -112.6875 C 66.230469 -112.652344 62.167969 -112.148438 57.753906 -110.953125 C 54.8125 -110.15625 51.910156 -109.035156 49.035156 -107.703125 C 46.15625 -106.371094 43.628906 -104.863281 41.339844 -103.171875 C 38.957031 -101.355469 36.9375 -99.261719 35.25 -97.097656 C 33.574219 -94.828125 32.566406 -92.421875 32.027344 -89.75 C 31.503906 -86.96875 31.527344 -84.148438 32.191406 -81.40625 C 32.746094 -78.652344 33.90625 -76.296875 35.457031 -74.316406 C 37.015625 -72.230469 38.9375 -70.730469 41.332031 -69.828125 C 43.617188 -68.917969 46.421875 -69.046875 49.554688 -70.085938 Z M 20.496094 -2.859375 C 23.949219 -3.066406 27.15625 -4.332031 30.140625 -6.546875 C 33.125 -8.761719 36.03125 -11.617188 38.859375 -15.117188 C 41.695312 -18.507812 44.253906 -22.40625 46.75 -26.84375 C 49.253906 -31.167969 51.734375 -35.710938 54.1875 -40.46875 C 55.503906 -43.019531 56.976562 -46.023438 58.640625 -49.269531 C 60.300781 -52.515625 62.058594 -55.882812 64 -59.488281 L 66.832031 -64.726562 C 69.054688 -68.691406 71.386719 -72.671875 73.71875 -76.652344 C 76.050781 -80.632812 78.328125 -84.171875 80.648438 -87.390625 C 82.871094 -90.488281 84.945312 -93.027344 87.089844 -95.027344 C 89.121094 -97.019531 90.929688 -98.21875 92.613281 -98.644531 C 90.558594 -100.34375 88.339844 -100.722656 86.066406 -99.789062 C 83.683594 -98.84375 81.089844 -97.003906 78.15625 -94.359375 C 77.285156 -93.492188 76.160156 -92.050781 74.675781 -90.019531 C 73.199219 -87.882812 71.433594 -85.492188 69.609375 -82.660156 C 67.679688 -79.816406 65.566406 -76.730469 63.367188 -73.421875 C 61.171875 -70.109375 58.867188 -66.78125 56.5625 -63.457031 L 52.769531 -58.101562 C 51.082031 -55.9375 49.503906 -53.789062 47.894531 -51.851562 C 46.289062 -49.917969 44.773438 -48.101562 43.328125 -46.617188 C 41.320312 -44.417969 39.390625 -42.441406 37.4375 -40.679688 C 35.496094 -38.808594 33.515625 -37.261719 31.617188 -35.941406 C 29.621094 -34.5 27.800781 -33.40625 26.050781 -32.648438 C 24.296875 -31.886719 22.71875 -31.476562 21.195312 -31.503906 C 19.683594 -31.425781 18.226562 -31.789062 16.945312 -32.5 C 15.664062 -33.210938 14.636719 -34.496094 13.863281 -36.355469 C 12.996094 -38.09375 12.492188 -40.421875 12.242188 -43.324219 C 12.003906 -46.117188 12.210938 -49.726562 12.871094 -54.042969 C 9.996094 -52.710938 7.496094 -50.988281 5.59375 -48.800781 C 3.585938 -46.597656 1.921875 -44.21875 0.621094 -41.5625 C -0.773438 -38.78125 -1.726562 -35.949219 -2.222656 -32.957031 C -2.816406 -29.84375 -2.996094 -26.886719 -2.867188 -24.082031 C -2.710938 -21.058594 -2.125 -18.089844 -1.140625 -15.390625 C -0.15625 -12.6875 1.21875 -10.359375 3.195312 -8.429688 C 5.074219 -6.382812 7.441406 -4.828125 10.273438 -3.875 C 13.117188 -2.816406 16.527344 -2.476562 20.496094 -2.859375 Z M 20.496094 -2.859375 "/></g></g></g><g fill="#ffffff" fill-opacity="1"><g transform="translate(78.334602, 219.916054)"><g><path d="M 7.316406 -1.445312 C 9.960938 -1.121094 12.527344 -1.4375 15.125 -2.410156 C 17.71875 -3.382812 20.273438 -4.675781 22.761719 -6.503906 C 25.15625 -8.210938 27.40625 -10.226562 29.628906 -12.457031 C 31.851562 -14.683594 33.941406 -17.117188 35.789062 -19.734375 C 37.542969 -22.230469 39.179688 -24.820312 40.707031 -27.398438 C 42.128906 -29.964844 43.359375 -32.289062 44.378906 -34.585938 C 40.121094 -28.628906 36.089844 -24.332031 32.503906 -21.714844 C 28.917969 -19.101562 25.8125 -17.847656 23.300781 -17.972656 C 20.695312 -17.976562 19.011719 -19.289062 18.027344 -21.992188 C 17.054688 -24.585938 17.140625 -28.289062 18.296875 -32.992188 C 18.59375 -34.117188 18.886719 -35.238281 19.183594 -36.359375 C 19.492188 -37.375 19.910156 -38.40625 20.324219 -39.433594 C 20.160156 -37.242188 20.667969 -35.785156 21.734375 -35.046875 C 22.695312 -34.296875 24.046875 -33.921875 25.652344 -34.117188 L 25.371094 -33.757812 C 28.390625 -33.914062 31.28125 -35.140625 33.835938 -37.300781 C 36.40625 -39.355469 38.375 -41.878906 39.96875 -44.792969 C 40.585938 -45.953125 41.152344 -47.542969 41.769531 -49.574219 C 42.386719 -51.605469 42.695312 -53.492188 42.671875 -55.441406 C 42.664062 -57.289062 42.144531 -58.851562 41.328125 -60.164062 C 40.421875 -61.355469 38.832031 -61.917969 36.667969 -61.867188 C 33.015625 -61.527344 29.472656 -60.328125 26.234375 -58.410156 C 22.996094 -56.488281 19.917969 -54.152344 17.214844 -51.429688 C 14.414062 -48.585938 11.964844 -45.570312 9.753906 -42.363281 C 7.558594 -39.050781 5.867188 -36.019531 4.472656 -33.242188 C 2.460938 -29.300781 0.878906 -25.414062 -0.167969 -21.589844 C -1.324219 -17.753906 -1.664062 -14.347656 -1.1875 -11.363281 C -0.765625 -7.941406 0.300781 -5.46875 1.796875 -3.914062 C 3.292969 -2.363281 5.121094 -1.609375 7.316406 -1.445312 Z M 24.347656 -39.386719 C 22.957031 -39.214844 22.117188 -39.871094 21.851562 -41.144531 C 21.480469 -42.398438 22.136719 -44.109375 23.691406 -46.472656 C 25.765625 -49.878906 27.964844 -52.324219 30.277344 -53.804688 C 32.5 -55.164062 34.453125 -56.058594 36.03125 -56.46875 L 36.136719 -56.480469 C 38.492188 -56.773438 39.464844 -55.914062 39.074219 -53.804688 C 38.777344 -52.679688 38.269531 -51.53125 37.558594 -50.25 C 36.847656 -48.96875 35.925781 -47.660156 34.988281 -46.457031 C 33.113281 -44.054688 31.15625 -42.292969 29.230469 -41.183594 C 27.210938 -39.957031 25.660156 -39.332031 24.347656 -39.386719 Z M 24.347656 -39.386719 "/></g></g></g><g fill="#ffffff" fill-opacity="1"><g transform="translate(117.159576, 215.120841)"><g><path d="M -0.398438 -0.601562 C 1.820312 -0.222656 4.386719 -0.542969 7.300781 -1.554688 C 10.21875 -2.566406 13.160156 -4.230469 16.132812 -6.554688 C 19.101562 -8.875 21.886719 -11.824219 24.59375 -15.417969 C 27.191406 -18.996094 29.5 -23.191406 31.296875 -27.972656 C 30.640625 -27.132812 29.984375 -26.292969 29.3125 -25.558594 C 28.644531 -24.824219 27.976562 -24.089844 27.292969 -23.460938 C 25.738281 -21.964844 24.160156 -20.6875 22.554688 -19.617188 C 20.949219 -18.550781 19.53125 -17.726562 18.085938 -17.113281 C 16.546875 -16.378906 15.183594 -15.992188 13.980469 -16.0625 C 12.789062 -16.023438 12.082031 -16.480469 11.761719 -17.308594 C 11.335938 -18.125 11.21875 -19.085938 11.488281 -20.421875 C 11.769531 -21.652344 12.238281 -23.121094 12.910156 -24.726562 C 13.59375 -26.222656 14.277344 -27.71875 14.960938 -29.214844 C 15.660156 -30.605469 16.464844 -32.007812 17.1875 -33.183594 C 17.910156 -34.355469 18.445312 -35.292969 18.703125 -35.867188 L 18.609375 -35.746094 L 31.558594 -60.152344 C 32.242188 -60.777344 33.03125 -61.417969 33.914062 -62.179688 C 34.796875 -62.941406 35.679688 -63.703125 36.65625 -64.582031 C 37.539062 -65.34375 38.425781 -66.105469 39.402344 -66.984375 C 40.390625 -67.757812 41.371094 -68.640625 42.441406 -69.640625 C 44.394531 -71.402344 46.441406 -73.285156 48.371094 -75.261719 C 50.296875 -77.234375 52.199219 -79.425781 53.980469 -81.707031 C 55.761719 -83.992188 57.332031 -86.25 58.777344 -88.601562 C 60.117188 -90.9375 61.042969 -93.113281 61.648438 -95.253906 C 62.160156 -97.269531 62.242188 -99.234375 61.925781 -100.933594 C 61.5 -102.621094 60.550781 -104.132812 58.867188 -105.445312 C 57.695312 -106.167969 56.316406 -106.757812 54.765625 -107 C 53.21875 -107.242188 51.492188 -107.140625 49.699219 -106.699219 C 47.8125 -106.140625 46.074219 -105.277344 44.28125 -103.96875 C 42.488281 -102.660156 40.960938 -100.953125 39.59375 -98.828125 C 32.789062 -87.996094 26.515625 -77.230469 20.671875 -66.519531 C 14.828125 -55.804688 8.902344 -44.863281 2.898438 -33.699219 L -0.132812 -28.328125 C -0.65625 -27.285156 -1.179688 -26.242188 -1.714844 -25.308594 C -2.25 -24.375 -2.667969 -23.34375 -3.09375 -22.421875 C -4.140625 -20.339844 -4.984375 -18.390625 -5.605469 -16.359375 C -6.328125 -14.3125 -6.734375 -12.308594 -6.828125 -10.449219 C -7.101562 -7.375 -6.597656 -5.050781 -5.421875 -3.457031 C -4.25 -1.863281 -2.605469 -0.871094 -0.398438 -0.601562 Z M 31.886719 -65.40625 L 51.945312 -98.183594 C 52.484375 -99.117188 53.273438 -99.757812 54.101562 -100.078125 C 54.945312 -100.289062 55.597656 -100.261719 56.292969 -99.914062 C 56.773438 -99.539062 57.28125 -98.949219 57.601562 -98.121094 C 57.921875 -97.289062 57.945312 -96.207031 57.785156 -94.882812 C 57.515625 -93.546875 56.84375 -91.945312 55.972656 -90.207031 C 55.113281 -88.363281 53.734375 -86.347656 51.941406 -84.171875 C 50.441406 -82.25 48.710938 -80.40625 46.890625 -78.445312 C 44.964844 -76.46875 43.128906 -74.613281 41.28125 -72.863281 C 39.328125 -71.101562 37.574219 -69.472656 35.886719 -68.179688 C 34.199219 -66.886719 32.902344 -65.964844 31.886719 -65.40625 Z M 31.886719 -65.40625 "/></g></g></g><g fill="#ffffff" fill-opacity="1"><g transform="translate(141.224252, 212.14865)"><g><path d="M -0.398438 -0.601562 C 1.820312 -0.222656 4.386719 -0.542969 7.300781 -1.554688 C 10.21875 -2.566406 13.160156 -4.230469 16.132812 -6.554688 C 19.101562 -8.875 21.886719 -11.824219 24.59375 -15.417969 C 27.191406 -18.996094 29.5 -23.191406 31.296875 -27.972656 C 30.640625 -27.132812 29.984375 -26.292969 29.3125 -25.558594 C 28.644531 -24.824219 27.976562 -24.089844 27.292969 -23.460938 C 25.738281 -21.964844 24.160156 -20.6875 22.554688 -19.617188 C 20.949219 -18.550781 19.53125 -17.726562 18.085938 -17.113281 C 16.546875 -16.378906 15.183594 -15.992188 13.980469 -16.0625 C 12.789062 -16.023438 12.082031 -16.480469 11.761719 -17.308594 C 11.335938 -18.125 11.21875 -19.085938 11.488281 -20.421875 C 11.769531 -21.652344 12.238281 -23.121094 12.910156 -24.726562 C 13.59375 -26.222656 14.277344 -27.71875 14.960938 -29.214844 C 15.660156 -30.605469 16.464844 -32.007812 17.1875 -33.183594 C 17.910156 -34.355469 18.445312 -35.292969 18.703125 -35.867188 L 18.609375 -35.746094 L 31.558594 -60.152344 C 32.242188 -60.777344 33.03125 -61.417969 33.914062 -62.179688 C 34.796875 -62.941406 35.679688 -63.703125 36.65625 -64.582031 C 37.539062 -65.34375 38.425781 -66.105469 39.402344 -66.984375 C 40.390625 -67.757812 41.371094 -68.640625 42.441406 -69.640625 C 44.394531 -71.402344 46.441406 -73.285156 48.371094 -75.261719 C 50.296875 -77.234375 52.199219 -79.425781 53.980469 -81.707031 C 55.761719 -83.992188 57.332031 -86.25 58.777344 -88.601562 C 60.117188 -90.9375 61.042969 -93.113281 61.648438 -95.253906 C 62.160156 -97.269531 62.242188 -99.234375 61.925781 -100.933594 C 61.5 -102.621094 60.550781 -104.132812 58.867188 -105.445312 C 57.695312 -106.167969 56.316406 -106.757812 54.765625 -107 C 53.21875 -107.242188 51.492188 -107.140625 49.699219 -106.699219 C 47.8125 -106.140625 46.074219 -105.277344 44.28125 -103.96875 C 42.488281 -102.660156 40.960938 -100.953125 39.59375 -98.828125 C 32.789062 -87.996094 26.515625 -77.230469 20.671875 -66.519531 C 14.828125 -55.804688 8.902344 -44.863281 2.898438 -33.699219 L -0.132812 -28.328125 C -0.65625 -27.285156 -1.179688 -26.242188 -1.714844 -25.308594 C -2.25 -24.375 -2.667969 -23.34375 -3.09375 -22.421875 C -4.140625 -20.339844 -4.984375 -18.390625 -5.605469 -16.359375 C -6.328125 -14.3125 -6.734375 -12.308594 -6.828125 -10.449219 C -7.101562 -7.375 -6.597656 -5.050781 -5.421875 -3.457031 C -4.25 -1.863281 -2.605469 -0.871094 -0.398438 -0.601562 Z M 31.886719 -65.40625 L 51.945312 -98.183594 C 52.484375 -99.117188 53.273438 -99.757812 54.101562 -100.078125 C 54.945312 -100.289062 55.597656 -100.261719 56.292969 -99.914062 C 56.773438 -99.539062 57.28125 -98.949219 57.601562 -98.121094 C 57.921875 -97.289062 57.945312 -96.207031 57.785156 -94.882812 C 57.515625 -93.546875 56.84375 -91.945312 55.972656 -90.207031 C 55.113281 -88.363281 53.734375 -86.347656 51.941406 -84.171875 C 50.441406 -82.25 48.710938 -80.40625 46.890625 -78.445312 C 44.964844 -76.46875 43.128906 -74.613281 41.28125 -72.863281 C 39.328125 -71.101562 37.574219 -69.472656 35.886719 -68.179688 C 34.199219 -66.886719 32.902344 -65.964844 31.886719 -65.40625 Z M 31.886719 -65.40625 "/></g></g></g><g fill="#ffffff" fill-opacity="1"><g transform="translate(165.288919, 209.17646)"><g><path d="M -3.574219 49.3125 C -0.875 48.324219 1.855469 46.683594 4.585938 44.175781 C 7.316406 41.667969 9.996094 38.730469 12.59375 35.152344 C 15.207031 31.679688 17.496094 28.246094 19.683594 24.828125 C 21.867188 21.410156 23.742188 18.136719 25.429688 15.105469 C 26.234375 13.699219 26.945312 12.417969 27.5625 11.257812 C 28.179688 10.09375 28.714844 9.160156 29.265625 8.332031 C 30.953125 5.300781 32.734375 2.148438 34.503906 -1.113281 C 36.273438 -4.371094 38.042969 -7.632812 39.789062 -11.105469 C 43.300781 -17.835938 46.625 -24.328125 49.761719 -30.582031 C 52.898438 -36.832031 55.957031 -42.855469 58.746094 -48.414062 C 60.140625 -51.191406 61.453125 -53.746094 62.6875 -56.070312 C 63.921875 -58.394531 64.953125 -60.585938 66 -62.667969 L 50.917969 -60.804688 C 49.496094 -58.242188 48.179688 -55.6875 46.761719 -53.125 C 45.339844 -50.558594 44.027344 -48.007812 42.699219 -45.5625 C 41.277344 -43 39.949219 -40.554688 38.53125 -37.988281 C 37.109375 -35.425781 35.796875 -32.875 34.480469 -30.324219 L 32.09375 -25.902344 C 31.023438 -24.03125 29.925781 -22.375 28.707031 -20.8125 C 27.394531 -19.128906 25.933594 -17.753906 24.542969 -16.714844 C 23.058594 -15.554688 21.597656 -15.046875 20.074219 -15.078125 C 19.324219 -14.984375 18.832031 -15.464844 18.605469 -16.414062 C 18.3125 -17.03125 18.488281 -18.246094 19.132812 -20.066406 C 19.777344 -21.882812 20.796875 -24.179688 22.203125 -26.851562 C 23.503906 -29.507812 24.804688 -32.167969 26.214844 -34.839844 C 27.527344 -37.390625 28.640625 -39.808594 29.660156 -42.105469 C 30.679688 -44.40625 31.230469 -46.101562 31.285156 -47.410156 C 31.339844 -49.589844 31.023438 -51.289062 30.410156 -52.734375 C 29.796875 -54.179688 28.902344 -55.261719 27.835938 -56 C 26.539062 -56.816406 25.082031 -57.179688 23.558594 -57.210938 C 22.035156 -57.238281 20.457031 -56.824219 18.90625 -56.199219 C 19.761719 -55.4375 20.386719 -54.753906 20.679688 -54.136719 C 20.988281 -53.417969 20.972656 -52.652344 20.851562 -51.878906 C 20.636719 -50.984375 20.21875 -49.953125 19.695312 -48.914062 C 19.078125 -47.75 18.355469 -46.574219 17.660156 -45.1875 L 17.671875 -45.078125 L 1.898438 -18.042969 C 1.335938 -17.324219 0.90625 -16.402344 0.382812 -15.359375 C -0.140625 -14.316406 -0.648438 -13.167969 -1.050781 -12.03125 C -2.289062 -7.972656 -2.25 -5.042969 -1.160156 -3.222656 C -0.597656 -2.207031 0.164062 -1.324219 1.097656 -0.789062 C 2.046875 -0.144531 3.074219 0.273438 4.289062 0.449219 C 5.414062 0.742188 6.710938 0.691406 8.085938 0.414062 C 9.371094 0.253906 10.722656 -0.238281 11.925781 -1.039062 C 14.359375 -2.425781 16.742188 -4.238281 18.871094 -6.347656 C 21 -8.457031 22.902344 -10.648438 24.578125 -12.917969 C 26.050781 -15.054688 27.269531 -16.617188 28.234375 -17.605469 L 17.992188 0.601562 C 10.527344 3.476562 4.617188 6.597656 0.0507812 10.09375 C -4.710938 13.722656 -8.179688 17.300781 -10.484375 20.625 C -12.882812 24.070312 -14.449219 27.195312 -15.296875 30.015625 C -16.238281 32.957031 -16.667969 35.617188 -16.578125 38.101562 C -16.488281 40.589844 -16.011719 42.703125 -15.023438 44.535156 C -14.679688 45.578125 -14.023438 46.476562 -13.277344 47.25 C -12.53125 48.027344 -11.6875 48.683594 -10.753906 49.21875 C -9.820312 49.757812 -8.710938 49.945312 -7.507812 50.015625 C -6.304688 50.082031 -5.019531 49.921875 -3.574219 49.3125 Z M -6.695312 33.730469 C -8.242188 33.488281 -9.207031 32.738281 -9.363281 31.457031 C -9.523438 30.171875 -9.375 28.742188 -8.703125 27.136719 C -8.125 25.65625 -7.335938 24.144531 -6.4375 22.625 C -5.539062 21.101562 -4.613281 19.792969 -3.757812 18.816406 C -1.078125 15.878906 1.972656 13.332031 5.398438 11.171875 C 8.824219 9.011719 12.167969 7.078125 15.539062 5.355469 L 15.660156 5.449219 L 13.449219 9.523438 C 12.910156 10.460938 12.390625 11.5 11.851562 12.4375 C 11.328125 13.480469 10.699219 14.535156 10.070312 15.589844 C 8.824219 17.804688 7.46875 20.035156 6.011719 22.28125 C 4.5625 24.632812 3.183594 26.648438 1.761719 28.34375 C 0.25 30.160156 -1.316406 31.546875 -2.707031 32.589844 C -4.101562 33.628906 -5.464844 34.015625 -6.695312 33.730469 Z M -6.695312 33.730469 "/></g></g></g><g fill="#ff3131" fill-opacity="1"><g transform="translate(11.637043, 226.705844)"><g><path d="M 49.554688 -70.085938 C 51.238281 -70.511719 52.65625 -71.335938 54.046875 -72.378906 C 55.332031 -73.40625 56.363281 -74.726562 57.25 -76.355469 C 58.816406 -79.484375 58.769531 -83.386719 57.332031 -87.988281 C 55.753906 -86.707031 54.1875 -86.1875 52.878906 -86.242188 C 51.460938 -86.285156 50.324219 -86.6875 49.445312 -87.664062 C 48.46875 -88.523438 47.777344 -89.738281 47.378906 -91.210938 C 46.980469 -92.679688 46.902344 -94.191406 47.117188 -95.957031 C 47.683594 -99.285156 48.996094 -101.835938 51.179688 -103.515625 C 53.359375 -105.199219 55.824219 -106.371094 58.578125 -106.929688 C 61.332031 -107.484375 64.21875 -107.84375 67.039062 -107.863281 C 69.769531 -107.765625 72.507812 -107.5625 75.15625 -107.238281 C 77.800781 -106.914062 80.355469 -106.46875 82.8125 -105.902344 C 83.933594 -105.609375 85.058594 -105.3125 86.074219 -105.003906 C 87.089844 -104.695312 88.089844 -104.492188 89.105469 -104.183594 C 90.015625 -103.859375 91.042969 -103.445312 92.058594 -103.136719 C 92.980469 -102.707031 94.117188 -102.304688 95.371094 -101.808594 C 96.523438 -101.296875 97.777344 -100.800781 99.035156 -100.304688 C 100.289062 -99.808594 101.53125 -99.417969 102.882812 -99.042969 C 105.488281 -98.171875 108.171875 -97.523438 110.941406 -97.105469 C 113.601562 -96.675781 116.207031 -96.671875 118.535156 -97.175781 C 120.460938 -97.414062 122.226562 -98.066406 123.617188 -99.105469 C 125.023438 -100.039062 126.1875 -101.160156 127.097656 -102.578125 C 127.914062 -103.871094 128.503906 -105.25 128.746094 -106.796875 C 129.003906 -108.242188 129.03125 -109.765625 128.847656 -111.261719 C 128.582031 -112.535156 128.101562 -113.777344 127.410156 -114.996094 C 126.714844 -116.214844 125.808594 -117.402344 124.699219 -118.460938 C 123.5 -119.398438 122.191406 -120.324219 120.574219 -121.101562 C 118.972656 -121.773438 117.273438 -122.324219 115.28125 -122.621094 C 115.597656 -120.050781 115.625 -118.101562 115.167969 -116.523438 C 114.710938 -114.945312 114 -113.664062 113.023438 -112.785156 C 112.058594 -111.796875 110.839844 -111.101562 109.371094 -110.703125 C 107.898438 -110.304688 106.414062 -110.011719 104.890625 -110.042969 C 102.738281 -109.886719 100.679688 -109.847656 98.699219 -110.039062 C 96.628906 -110.109375 94.648438 -110.296875 92.765625 -110.609375 L 81.390625 -112.136719 C 77.648438 -112.542969 73.824219 -112.722656 70.027344 -112.6875 C 66.230469 -112.652344 62.167969 -112.148438 57.753906 -110.953125 C 54.8125 -110.15625 51.910156 -109.035156 49.035156 -107.703125 C 46.15625 -106.371094 43.628906 -104.863281 41.339844 -103.171875 C 38.957031 -101.355469 36.9375 -99.261719 35.25 -97.097656 C 33.574219 -94.828125 32.566406 -92.421875 32.027344 -89.75 C 31.503906 -86.96875 31.527344 -84.148438 32.191406 -81.40625 C 32.746094 -78.652344 33.90625 -76.296875 35.457031 -74.316406 C 37.015625 -72.230469 38.9375 -70.730469 41.332031 -69.828125 C 43.617188 -68.917969 46.421875 -69.046875 49.554688 -70.085938 Z M 20.496094 -2.859375 C 23.949219 -3.066406 27.15625 -4.332031 30.140625 -6.546875 C 33.125 -8.761719 36.03125 -11.617188 38.859375 -15.117188 C 41.695312 -18.507812 44.253906 -22.40625 46.75 -26.84375 C 49.253906 -31.167969 51.734375 -35.710938 54.1875 -40.46875 C 55.503906 -43.019531 56.976562 -46.023438 58.640625 -49.269531 C 60.300781 -52.515625 62.058594 -55.882812 64 -59.488281 L 66.832031 -64.726562 C 69.054688 -68.691406 71.386719 -72.671875 73.71875 -76.652344 C 76.050781 -80.632812 78.328125 -84.171875 80.648438 -87.390625 C 82.871094 -90.488281 84.945312 -93.027344 87.089844 -95.027344 C 89.121094 -97.019531 90.929688 -98.21875 92.613281 -98.644531 C 90.558594 -100.34375 88.339844 -100.722656 86.066406 -99.789062 C 83.683594 -98.84375 81.089844 -97.003906 78.15625 -94.359375 C 77.285156 -93.492188 76.160156 -92.050781 74.675781 -90.019531 C 73.199219 -87.882812 71.433594 -85.492188 69.609375 -82.660156 C 67.679688 -79.816406 65.566406 -76.730469 63.367188 -73.421875 C 61.171875 -70.109375 58.867188 -66.78125 56.5625 -63.457031 L 52.769531 -58.101562 C 51.082031 -55.9375 49.503906 -53.789062 47.894531 -51.851562 C 46.289062 -49.917969 44.773438 -48.101562 43.328125 -46.617188 C 41.320312 -44.417969 39.390625 -42.441406 37.4375 -40.679688 C 35.496094 -38.808594 33.515625 -37.261719 31.617188 -35.941406 C 29.621094 -34.5 27.800781 -33.40625 26.050781 -32.648438 C 24.296875 -31.886719 22.71875 -31.476562 21.195312 -31.503906 C 19.683594 -31.425781 18.226562 -31.789062 16.945312 -32.5 C 15.664062 -33.210938 14.636719 -34.496094 13.863281 -36.355469 C 12.996094 -38.09375 12.492188 -40.421875 12.242188 -43.324219 C 12.003906 -46.117188 12.210938 -49.726562 12.871094 -54.042969 C 9.996094 -52.710938 7.496094 -50.988281 5.59375 -48.800781 C 3.585938 -46.597656 1.921875 -44.21875 0.621094 -41.5625 C -0.773438 -38.78125 -1.726562 -35.949219 -2.222656 -32.957031 C -2.816406 -29.84375 -2.996094 -26.886719 -2.867188 -24.082031 C -2.710938 -21.058594 -2.125 -18.089844 -1.140625 -15.390625 C -0.15625 -12.6875 1.21875 -10.359375 3.195312 -8.429688 C 5.074219 -6.382812 7.441406 -4.828125 10.273438 -3.875 C 13.117188 -2.816406 16.527344 -2.476562 20.496094 -2.859375 Z M 20.496094 -2.859375 "/></g></g></g><g fill="#ff3131" fill-opacity="1"><g transform="translate(80.731329, 218.172115)"><g><path d="M 7.316406 -1.445312 C 9.960938 -1.121094 12.527344 -1.4375 15.125 -2.410156 C 17.71875 -3.382812 20.273438 -4.675781 22.761719 -6.503906 C 25.15625 -8.210938 27.40625 -10.226562 29.628906 -12.457031 C 31.851562 -14.683594 33.941406 -17.117188 35.789062 -19.734375 C 37.542969 -22.230469 39.179688 -24.820312 40.707031 -27.398438 C 42.128906 -29.964844 43.359375 -32.289062 44.378906 -34.585938 C 40.121094 -28.628906 36.089844 -24.332031 32.503906 -21.714844 C 28.917969 -19.101562 25.8125 -17.847656 23.300781 -17.972656 C 20.695312 -17.976562 19.011719 -19.289062 18.027344 -21.992188 C 17.054688 -24.585938 17.140625 -28.289062 18.296875 -32.992188 C 18.59375 -34.117188 18.886719 -35.238281 19.183594 -36.359375 C 19.492188 -37.375 19.910156 -38.40625 20.324219 -39.433594 C 20.160156 -37.242188 20.667969 -35.785156 21.734375 -35.046875 C 22.695312 -34.296875 24.046875 -33.921875 25.652344 -34.117188 L 25.371094 -33.757812 C 28.390625 -33.914062 31.28125 -35.140625 33.835938 -37.300781 C 36.40625 -39.355469 38.375 -41.878906 39.96875 -44.792969 C 40.585938 -45.953125 41.152344 -47.542969 41.769531 -49.574219 C 42.386719 -51.605469 42.695312 -53.492188 42.671875 -55.441406 C 42.664062 -57.289062 42.144531 -58.851562 41.328125 -60.164062 C 40.421875 -61.355469 38.832031 -61.917969 36.667969 -61.867188 C 33.015625 -61.527344 29.472656 -60.328125 26.234375 -58.410156 C 22.996094 -56.488281 19.917969 -54.152344 17.214844 -51.429688 C 14.414062 -48.585938 11.964844 -45.570312 9.753906 -42.363281 C 7.558594 -39.050781 5.867188 -36.019531 4.472656 -33.242188 C 2.460938 -29.300781 0.878906 -25.414062 -0.167969 -21.589844 C -1.324219 -17.753906 -1.664062 -14.347656 -1.1875 -11.363281 C -0.765625 -7.941406 0.300781 -5.46875 1.796875 -3.914062 C 3.292969 -2.363281 5.121094 -1.609375 7.316406 -1.445312 Z M 24.347656 -39.386719 C 22.957031 -39.214844 22.117188 -39.871094 21.851562 -41.144531 C 21.480469 -42.398438 22.136719 -44.109375 23.691406 -46.472656 C 25.765625 -49.878906 27.964844 -52.324219 30.277344 -53.804688 C 32.5 -55.164062 34.453125 -56.058594 36.03125 -56.46875 L 36.136719 -56.480469 C 38.492188 -56.773438 39.464844 -55.914062 39.074219 -53.804688 C 38.777344 -52.679688 38.269531 -51.53125 37.558594 -50.25 C 36.847656 -48.96875 35.925781 -47.660156 34.988281 -46.457031 C 33.113281 -44.054688 31.15625 -42.292969 29.230469 -41.183594 C 27.210938 -39.957031 25.660156 -39.332031 24.347656 -39.386719 Z M 24.347656 -39.386719 "/></g></g></g><g fill="#ff3131" fill-opacity="1"><g transform="translate(119.556302, 213.376903)"><g><path d="M -0.398438 -0.601562 C 1.820312 -0.222656 4.386719 -0.542969 7.300781 -1.554688 C 10.21875 -2.566406 13.160156 -4.230469 16.132812 -6.554688 C 19.101562 -8.875 21.886719 -11.824219 24.59375 -15.417969 C 27.191406 -18.996094 29.5 -23.191406 31.296875 -27.972656 C 30.640625 -27.132812 29.984375 -26.292969 29.3125 -25.558594 C 28.644531 -24.824219 27.976562 -24.089844 27.292969 -23.460938 C 25.738281 -21.964844 24.160156 -20.6875 22.554688 -19.617188 C 20.949219 -18.550781 19.53125 -17.726562 18.085938 -17.113281 C 16.546875 -16.378906 15.183594 -15.992188 13.980469 -16.0625 C 12.789062 -16.023438 12.082031 -16.480469 11.761719 -17.308594 C 11.335938 -18.125 11.21875 -19.085938 11.488281 -20.421875 C 11.769531 -21.652344 12.238281 -23.121094 12.910156 -24.726562 C 13.59375 -26.222656 14.277344 -27.71875 14.960938 -29.214844 C 15.660156 -30.605469 16.464844 -32.007812 17.1875 -33.183594 C 17.910156 -34.355469 18.445312 -35.292969 18.703125 -35.867188 L 18.609375 -35.746094 L 31.558594 -60.152344 C 32.242188 -60.777344 33.03125 -61.417969 33.914062 -62.179688 C 34.796875 -62.941406 35.679688 -63.703125 36.65625 -64.582031 C 37.539062 -65.34375 38.425781 -66.105469 39.402344 -66.984375 C 40.390625 -67.757812 41.371094 -68.640625 42.441406 -69.640625 C 44.394531 -71.402344 46.441406 -73.285156 48.371094 -75.261719 C 50.296875 -77.234375 52.199219 -79.425781 53.980469 -81.707031 C 55.761719 -83.992188 57.332031 -86.25 58.777344 -88.601562 C 60.117188 -90.9375 61.042969 -93.113281 61.648438 -95.253906 C 62.160156 -97.269531 62.242188 -99.234375 61.925781 -100.933594 C 61.5 -102.621094 60.550781 -104.132812 58.867188 -105.445312 C 57.695312 -106.167969 56.316406 -106.757812 54.765625 -107 C 53.21875 -107.242188 51.492188 -107.140625 49.699219 -106.699219 C 47.8125 -106.140625 46.074219 -105.277344 44.28125 -103.96875 C 42.488281 -102.660156 40.960938 -100.953125 39.59375 -98.828125 C 32.789062 -87.996094 26.515625 -77.230469 20.671875 -66.519531 C 14.828125 -55.804688 8.902344 -44.863281 2.898438 -33.699219 L -0.132812 -28.328125 C -0.65625 -27.285156 -1.179688 -26.242188 -1.714844 -25.308594 C -2.25 -24.375 -2.667969 -23.34375 -3.09375 -22.421875 C -4.140625 -20.339844 -4.984375 -18.390625 -5.605469 -16.359375 C -6.328125 -14.3125 -6.734375 -12.308594 -6.828125 -10.449219 C -7.101562 -7.375 -6.597656 -5.050781 -5.421875 -3.457031 C -4.25 -1.863281 -2.605469 -0.871094 -0.398438 -0.601562 Z M 31.886719 -65.40625 L 51.945312 -98.183594 C 52.484375 -99.117188 53.273438 -99.757812 54.101562 -100.078125 C 54.945312 -100.289062 55.597656 -100.261719 56.292969 -99.914062 C 56.773438 -99.539062 57.28125 -98.949219 57.601562 -98.121094 C 57.921875 -97.289062 57.945312 -96.207031 57.785156 -94.882812 C 57.515625 -93.546875 56.84375 -91.945312 55.972656 -90.207031 C 55.113281 -88.363281 53.734375 -86.347656 51.941406 -84.171875 C 50.441406 -82.25 48.710938 -80.40625 46.890625 -78.445312 C 44.964844 -76.46875 43.128906 -74.613281 41.28125 -72.863281 C 39.328125 -71.101562 37.574219 -69.472656 35.886719 -68.179688 C 34.199219 -66.886719 32.902344 -65.964844 31.886719 -65.40625 Z M 31.886719 -65.40625 "/></g></g></g><g fill="#ff3131" fill-opacity="1"><g transform="translate(143.620978, 210.404712)"><g><path d="M -0.398438 -0.601562 C 1.820312 -0.222656 4.386719 -0.542969 7.300781 -1.554688 C 10.21875 -2.566406 13.160156 -4.230469 16.132812 -6.554688 C 19.101562 -8.875 21.886719 -11.824219 24.59375 -15.417969 C 27.191406 -18.996094 29.5 -23.191406 31.296875 -27.972656 C 30.640625 -27.132812 29.984375 -26.292969 29.3125 -25.558594 C 28.644531 -24.824219 27.976562 -24.089844 27.292969 -23.460938 C 25.738281 -21.964844 24.160156 -20.6875 22.554688 -19.617188 C 20.949219 -18.550781 19.53125 -17.726562 18.085938 -17.113281 C 16.546875 -16.378906 15.183594 -15.992188 13.980469 -16.0625 C 12.789062 -16.023438 12.082031 -16.480469 11.761719 -17.308594 C 11.335938 -18.125 11.21875 -19.085938 11.488281 -20.421875 C 11.769531 -21.652344 12.238281 -23.121094 12.910156 -24.726562 C 13.59375 -26.222656 14.277344 -27.71875 14.960938 -29.214844 C 15.660156 -30.605469 16.464844 -32.007812 17.1875 -33.183594 C 17.910156 -34.355469 18.445312 -35.292969 18.703125 -35.867188 L 18.609375 -35.746094 L 31.558594 -60.152344 C 32.242188 -60.777344 33.03125 -61.417969 33.914062 -62.179688 C 34.796875 -62.941406 35.679688 -63.703125 36.65625 -64.582031 C 37.539062 -65.34375 38.425781 -66.105469 39.402344 -66.984375 C 40.390625 -67.757812 41.371094 -68.640625 42.441406 -69.640625 C 44.394531 -71.402344 46.441406 -73.285156 48.371094 -75.261719 C 50.296875 -77.234375 52.199219 -79.425781 53.980469 -81.707031 C 55.761719 -83.992188 57.332031 -86.25 58.777344 -88.601562 C 60.117188 -90.9375 61.042969 -93.113281 61.648438 -95.253906 C 62.160156 -97.269531 62.242188 -99.234375 61.925781 -100.933594 C 61.5 -102.621094 60.550781 -104.132812 58.867188 -105.445312 C 57.695312 -106.167969 56.316406 -106.757812 54.765625 -107 C 53.21875 -107.242188 51.492188 -107.140625 49.699219 -106.699219 C 47.8125 -106.140625 46.074219 -105.277344 44.28125 -103.96875 C 42.488281 -102.660156 40.960938 -100.953125 39.59375 -98.828125 C 32.789062 -87.996094 26.515625 -77.230469 20.671875 -66.519531 C 14.828125 -55.804688 8.902344 -44.863281 2.898438 -33.699219 L -0.132812 -28.328125 C -0.65625 -27.285156 -1.179688 -26.242188 -1.714844 -25.308594 C -2.25 -24.375 -2.667969 -23.34375 -3.09375 -22.421875 C -4.140625 -20.339844 -4.984375 -18.390625 -5.605469 -16.359375 C -6.328125 -14.3125 -6.734375 -12.308594 -6.828125 -10.449219 C -7.101562 -7.375 -6.597656 -5.050781 -5.421875 -3.457031 C -4.25 -1.863281 -2.605469 -0.871094 -0.398438 -0.601562 Z M 31.886719 -65.40625 L 51.945312 -98.183594 C 52.484375 -99.117188 53.273438 -99.757812 54.101562 -100.078125 C 54.945312 -100.289062 55.597656 -100.261719 56.292969 -99.914062 C 56.773438 -99.539062 57.28125 -98.949219 57.601562 -98.121094 C 57.921875 -97.289062 57.945312 -96.207031 57.785156 -94.882812 C 57.515625 -93.546875 56.84375 -91.945312 55.972656 -90.207031 C 55.113281 -88.363281 53.734375 -86.347656 51.941406 -84.171875 C 50.441406 -82.25 48.710938 -80.40625 46.890625 -78.445312 C 44.964844 -76.46875 43.128906 -74.613281 41.28125 -72.863281 C 39.328125 -71.101562 37.574219 -69.472656 35.886719 -68.179688 C 34.199219 -66.886719 32.902344 -65.964844 31.886719 -65.40625 Z M 31.886719 -65.40625 "/></g></g></g><g fill="#ff3131" fill-opacity="1"><g transform="translate(167.685645, 207.432522)"><g><path d="M -3.574219 49.3125 C -0.875 48.324219 1.855469 46.683594 4.585938 44.175781 C 7.316406 41.667969 9.996094 38.730469 12.59375 35.152344 C 15.207031 31.679688 17.496094 28.246094 19.683594 24.828125 C 21.867188 21.410156 23.742188 18.136719 25.429688 15.105469 C 26.234375 13.699219 26.945312 12.417969 27.5625 11.257812 C 28.179688 10.09375 28.714844 9.160156 29.265625 8.332031 C 30.953125 5.300781 32.734375 2.148438 34.503906 -1.113281 C 36.273438 -4.371094 38.042969 -7.632812 39.789062 -11.105469 C 43.300781 -17.835938 46.625 -24.328125 49.761719 -30.582031 C 52.898438 -36.832031 55.957031 -42.855469 58.746094 -48.414062 C 60.140625 -51.191406 61.453125 -53.746094 62.6875 -56.070312 C 63.921875 -58.394531 64.953125 -60.585938 66 -62.667969 L 50.917969 -60.804688 C 49.496094 -58.242188 48.179688 -55.6875 46.761719 -53.125 C 45.339844 -50.558594 44.027344 -48.007812 42.699219 -45.5625 C 41.277344 -43 39.949219 -40.554688 38.53125 -37.988281 C 37.109375 -35.425781 35.796875 -32.875 34.480469 -30.324219 L 32.09375 -25.902344 C 31.023438 -24.03125 29.925781 -22.375 28.707031 -20.8125 C 27.394531 -19.128906 25.933594 -17.753906 24.542969 -16.714844 C 23.058594 -15.554688 21.597656 -15.046875 20.074219 -15.078125 C 19.324219 -14.984375 18.832031 -15.464844 18.605469 -16.414062 C 18.3125 -17.03125 18.488281 -18.246094 19.132812 -20.066406 C 19.777344 -21.882812 20.796875 -24.179688 22.203125 -26.851562 C 23.503906 -29.507812 24.804688 -32.167969 26.214844 -34.839844 C 27.527344 -37.390625 28.640625 -39.808594 29.660156 -42.105469 C 30.679688 -44.40625 31.230469 -46.101562 31.285156 -47.410156 C 31.339844 -49.589844 31.023438 -51.289062 30.410156 -52.734375 C 29.796875 -54.179688 28.902344 -55.261719 27.835938 -56 C 26.539062 -56.816406 25.082031 -57.179688 23.558594 -57.210938 C 22.035156 -57.238281 20.457031 -56.824219 18.90625 -56.199219 C 19.761719 -55.4375 20.386719 -54.753906 20.679688 -54.136719 C 20.988281 -53.417969 20.972656 -52.652344 20.851562 -51.878906 C 20.636719 -50.984375 20.21875 -49.953125 19.695312 -48.914062 C 19.078125 -47.75 18.355469 -46.574219 17.660156 -45.1875 L 17.671875 -45.078125 L 1.898438 -18.042969 C 1.335938 -17.324219 0.90625 -16.402344 0.382812 -15.359375 C -0.140625 -14.316406 -0.648438 -13.167969 -1.050781 -12.03125 C -2.289062 -7.972656 -2.25 -5.042969 -1.160156 -3.222656 C -0.597656 -2.207031 0.164062 -1.324219 1.097656 -0.789062 C 2.046875 -0.144531 3.074219 0.273438 4.289062 0.449219 C 5.414062 0.742188 6.710938 0.691406 8.085938 0.414062 C 9.371094 0.253906 10.722656 -0.238281 11.925781 -1.039062 C 14.359375 -2.425781 16.742188 -4.238281 18.871094 -6.347656 C 21 -8.457031 22.902344 -10.648438 24.578125 -12.917969 C 26.050781 -15.054688 27.269531 -16.617188 28.234375 -17.605469 L 17.992188 0.601562 C 10.527344 3.476562 4.617188 6.597656 0.0507812 10.09375 C -4.710938 13.722656 -8.179688 17.300781 -10.484375 20.625 C -12.882812 24.070312 -14.449219 27.195312 -15.296875 30.015625 C -16.238281 32.957031 -16.667969 35.617188 -16.578125 38.101562 C -16.488281 40.589844 -16.011719 42.703125 -15.023438 44.535156 C -14.679688 45.578125 -14.023438 46.476562 -13.277344 47.25 C -12.53125 48.027344 -11.6875 48.683594 -10.753906 49.21875 C -9.820312 49.757812 -8.710938 49.945312 -7.507812 50.015625 C -6.304688 50.082031 -5.019531 49.921875 -3.574219 49.3125 Z M -6.695312 33.730469 C -8.242188 33.488281 -9.207031 32.738281 -9.363281 31.457031 C -9.523438 30.171875 -9.375 28.742188 -8.703125 27.136719 C -8.125 25.65625 -7.335938 24.144531 -6.4375 22.625 C -5.539062 21.101562 -4.613281 19.792969 -3.757812 18.816406 C -1.078125 15.878906 1.972656 13.332031 5.398438 11.171875 C 8.824219 9.011719 12.167969 7.078125 15.539062 5.355469 L 15.660156 5.449219 L 13.449219 9.523438 C 12.910156 10.460938 12.390625 11.5 11.851562 12.4375 C 11.328125 13.480469 10.699219 14.535156 10.070312 15.589844 C 8.824219 17.804688 7.46875 20.035156 6.011719 22.28125 C 4.5625 24.632812 3.183594 26.648438 1.761719 28.34375 C 0.25 30.160156 -1.316406 31.546875 -2.707031 32.589844 C -4.101562 33.628906 -5.464844 34.015625 -6.695312 33.730469 Z M -6.695312 33.730469 "/></g></g></g><g fill="#ff3131" fill-opacity="1"><g transform="translate(223.983561, 223.977574)"><g><path d="M 21.808594 -2.800781 C 26.367188 -2.820312 30.992188 -4.046875 35.582031 -6.457031 C 40.183594 -8.765625 44.667969 -12.03125 48.953125 -16.035156 C 53.234375 -20.042969 57.238281 -24.554688 61.058594 -29.695312 C 64.875 -34.835938 68.332031 -40.257812 71.320312 -45.949219 C 75.371094 -53.617188 78.308594 -60.605469 80.136719 -66.910156 C 81.976562 -73.113281 82.917969 -78.660156 83.074219 -83.566406 C 83.132812 -88.351562 82.417969 -92.386719 81.019531 -95.800781 C 79.621094 -99.210938 77.765625 -101.914062 75.445312 -104.015625 C 73.027344 -106 70.261719 -107.285156 67.242188 -108 C 64.113281 -108.699219 60.960938 -108.742188 57.777344 -108.132812 L 57.75 -108.347656 C 53.3125 -107.363281 49.5 -105.699219 46.539062 -103.269531 C 43.582031 -100.839844 41.226562 -97.945312 39.457031 -94.683594 C 33.875 -90.628906 29.457031 -86.824219 26.203125 -83.273438 C 22.964844 -79.617188 20.21875 -76.34375 18.183594 -73.488281 C 15.957031 -70.386719 13.949219 -67.316406 11.964844 -64.03125 C 9.980469 -60.746094 8.117188 -57.367188 6.578125 -54.027344 C 4.941406 -50.566406 3.503906 -47.238281 2.402344 -43.84375 C 1.195312 -40.4375 0.296875 -37.175781 -0.191406 -34.078125 C -0.984375 -29.960938 -1.042969 -26.042969 -0.476562 -22.3125 C -0.0117188 -18.570312 1.160156 -15.238281 3.039062 -12.320312 C 4.828125 -9.285156 7.28125 -6.980469 10.316406 -5.292969 C 13.359375 -3.496094 17.261719 -2.675781 21.808594 -2.800781 Z M 42.195312 -21.5 C 38.210938 -20.359375 34.828125 -20.484375 32.15625 -21.890625 C 29.378906 -23.285156 27.253906 -25.519531 25.683594 -28.585938 C 24.003906 -31.632812 23.019531 -35.207031 22.730469 -39.296875 C 22.441406 -43.386719 22.6875 -47.546875 23.578125 -51.78125 C 24.359375 -56.003906 25.808594 -60.09375 27.925781 -64.046875 C 29.9375 -67.988281 32.578125 -71.246094 35.816406 -74.035156 C 36.410156 -69.222656 37.875 -65.277344 40.332031 -62.105469 C 41.503906 -60.511719 42.851562 -59.265625 44.480469 -58.382812 C 46.125 -57.390625 47.929688 -56.851562 49.882812 -56.875 C 52.179688 -56.726562 54.480469 -57.445312 56.796875 -58.925781 C 59.003906 -60.390625 60.972656 -62.914062 62.703125 -66.496094 C 58.796875 -66.449219 55.683594 -67.042969 53.332031 -68.488281 C 50.996094 -69.828125 49.367188 -71.582031 48.449219 -73.75 C 47.4375 -75.796875 47.039062 -78.136719 47.375 -80.675781 C 47.621094 -83.09375 48.414062 -85.472656 49.765625 -87.703125 C 51.480469 -90.523438 53.570312 -92.953125 56.03125 -94.992188 C 58.496094 -97.035156 60.984375 -97.996094 63.589844 -97.992188 C 67.734375 -97.851562 70.753906 -96.269531 72.648438 -93.246094 C 74.542969 -90.222656 75.445312 -86.421875 75.597656 -81.664062 C 75.644531 -76.890625 74.875 -71.691406 73.394531 -66.078125 C 71.917969 -60.46875 69.890625 -54.894531 67.316406 -49.363281 L 67.300781 -49.472656 C 62.972656 -40.574219 58.578125 -33.949219 54.332031 -29.625 C 50.101562 -25.191406 45.980469 -22.511719 42.195312 -21.5 Z M 42.195312 -21.5 "/></g></g></g><g fill="#ff3131" fill-opacity="1"><g transform="translate(293.398722, 215.404214)"><g><path d="M 10.726562 -40.636719 L -10.484375 1.292969 L 4.277344 -0.527344 C 9.265625 -11.136719 13.398438 -19.898438 16.644531 -27.035156 C 19.890625 -34.167969 22.664062 -39.832031 25.0625 -44.144531 C 27.371094 -48.339844 29.484375 -51.425781 31.425781 -53.292969 C 33.382812 -55.054688 35.429688 -56.070312 37.6875 -56.238281 C 39.105469 -56.195312 40.132812 -55.78125 40.695312 -54.765625 C 41.253906 -53.746094 41.183594 -52.542969 40.289062 -51.023438 L 27.246094 -28.234375 C 26.523438 -27.058594 25.824219 -25.667969 24.925781 -24.148438 C 24.042969 -22.515625 23.371094 -20.914062 22.703125 -19.3125 C 21.9375 -17.585938 21.386719 -15.890625 21.050781 -14.21875 C 20.710938 -12.550781 20.683594 -11.023438 21.070312 -9.660156 C 21.363281 -8.175781 22.054688 -6.960938 23.257812 -6.023438 C 24.472656 -4.976562 26.289062 -4.332031 28.707031 -4.089844 C 30.257812 -3.847656 31.96875 -4.058594 33.65625 -4.484375 C 35.339844 -4.90625 36.773438 -5.628906 38.148438 -6.773438 C 39.542969 -7.816406 40.882812 -9.285156 42.300781 -10.980469 C 43.613281 -12.664062 45.007812 -14.574219 46.386719 -16.589844 C 47.671875 -18.484375 48.851562 -20.367188 50.015625 -22.359375 C 51.089844 -24.230469 52.175781 -25.992188 53.058594 -27.621094 C 52.457031 -27.222656 51.773438 -26.59375 51.105469 -25.859375 C 50.730469 -25.378906 50.449219 -25.019531 50.0625 -24.644531 C 49.671875 -24.269531 49.285156 -23.898438 49.003906 -23.535156 C 48.226562 -22.789062 47.449219 -22.042969 46.648438 -21.507812 C 45.84375 -20.972656 45.015625 -20.65625 44.160156 -20.550781 C 42.875 -20.390625 42.15625 -20.953125 42.089844 -22.355469 C 41.945312 -23.535156 42.28125 -25.203125 43.085938 -27.476562 C 43.8125 -29.519531 44.832031 -31.816406 46.023438 -34.464844 C 47.230469 -37 48.4375 -39.539062 49.644531 -42.078125 C 50.757812 -44.496094 51.792969 -46.6875 52.621094 -48.746094 C 53.46875 -50.695312 53.9375 -52.164062 54.03125 -53.152344 C 54.007812 -55.105469 53.824219 -56.601562 53.238281 -57.832031 C 52.652344 -59.066406 51.984375 -60.066406 51.023438 -60.816406 C 48.886719 -62.292969 46.628906 -62.992188 44.234375 -63.019531 C 41.84375 -63.050781 39.410156 -62.535156 37.160156 -61.386719 C 34.804688 -60.226562 32.613281 -58.652344 30.484375 -56.542969 C 28.367188 -54.328125 26.597656 -51.9375 24.992188 -49.132812 C 25.476562 -52.234375 25.507812 -54.625 24.960938 -56.40625 C 24.429688 -58.078125 23.214844 -59.121094 21.316406 -59.539062 C 19.992188 -59.699219 18.402344 -59.394531 16.542969 -58.625 C 14.578125 -57.835938 12.261719 -56.355469 9.691406 -54.300781 L 9.316406 -54.691406 C 11.347656 -52.335938 12.386719 -50.074219 12.636719 -48.042969 C 12.660156 -46.957031 12.488281 -45.742188 12.191406 -44.621094 C 11.800781 -43.375 11.316406 -42.015625 10.726562 -40.636719 Z M 10.726562 -40.636719 "/></g></g></g><g fill="#ffffff" fill-opacity="1"><g transform="translate(227.142877, 221.678736)"><g><path d="M 21.808594 -2.800781 C 26.367188 -2.820312 30.992188 -4.046875 35.582031 -6.457031 C 40.183594 -8.765625 44.667969 -12.03125 48.953125 -16.035156 C 53.234375 -20.042969 57.238281 -24.554688 61.058594 -29.695312 C 64.875 -34.835938 68.332031 -40.257812 71.320312 -45.949219 C 75.371094 -53.617188 78.308594 -60.605469 80.136719 -66.910156 C 81.976562 -73.113281 82.917969 -78.660156 83.074219 -83.566406 C 83.132812 -88.351562 82.417969 -92.386719 81.019531 -95.800781 C 79.621094 -99.210938 77.765625 -101.914062 75.445312 -104.015625 C 73.027344 -106 70.261719 -107.285156 67.242188 -108 C 64.113281 -108.699219 60.960938 -108.742188 57.777344 -108.132812 L 57.75 -108.347656 C 53.3125 -107.363281 49.5 -105.699219 46.539062 -103.269531 C 43.582031 -100.839844 41.226562 -97.945312 39.457031 -94.683594 C 33.875 -90.628906 29.457031 -86.824219 26.203125 -83.273438 C 22.964844 -79.617188 20.21875 -76.34375 18.183594 -73.488281 C 15.957031 -70.386719 13.949219 -67.316406 11.964844 -64.03125 C 9.980469 -60.746094 8.117188 -57.367188 6.578125 -54.027344 C 4.941406 -50.566406 3.503906 -47.238281 2.402344 -43.84375 C 1.195312 -40.4375 0.296875 -37.175781 -0.191406 -34.078125 C -0.984375 -29.960938 -1.042969 -26.042969 -0.476562 -22.3125 C -0.0117188 -18.570312 1.160156 -15.238281 3.039062 -12.320312 C 4.828125 -9.285156 7.28125 -6.980469 10.316406 -5.292969 C 13.359375 -3.496094 17.261719 -2.675781 21.808594 -2.800781 Z M 42.195312 -21.5 C 38.210938 -20.359375 34.828125 -20.484375 32.15625 -21.890625 C 29.378906 -23.285156 27.253906 -25.519531 25.683594 -28.585938 C 24.003906 -31.632812 23.019531 -35.207031 22.730469 -39.296875 C 22.441406 -43.386719 22.6875 -47.546875 23.578125 -51.78125 C 24.359375 -56.003906 25.808594 -60.09375 27.925781 -64.046875 C 29.9375 -67.988281 32.578125 -71.246094 35.816406 -74.035156 C 36.410156 -69.222656 37.875 -65.277344 40.332031 -62.105469 C 41.503906 -60.511719 42.851562 -59.265625 44.480469 -58.382812 C 46.125 -57.390625 47.929688 -56.851562 49.882812 -56.875 C 52.179688 -56.726562 54.480469 -57.445312 56.796875 -58.925781 C 59.003906 -60.390625 60.972656 -62.914062 62.703125 -66.496094 C 58.796875 -66.449219 55.683594 -67.042969 53.332031 -68.488281 C 50.996094 -69.828125 49.367188 -71.582031 48.449219 -73.75 C 47.4375 -75.796875 47.039062 -78.136719 47.375 -80.675781 C 47.621094 -83.09375 48.414062 -85.472656 49.765625 -87.703125 C 51.480469 -90.523438 53.570312 -92.953125 56.03125 -94.992188 C 58.496094 -97.035156 60.984375 -97.996094 63.589844 -97.992188 C 67.734375 -97.851562 70.753906 -96.269531 72.648438 -93.246094 C 74.542969 -90.222656 75.445312 -86.421875 75.597656 -81.664062 C 75.644531 -76.890625 74.875 -71.691406 73.394531 -66.078125 C 71.917969 -60.46875 69.890625 -54.894531 67.316406 -49.363281 L 67.300781 -49.472656 C 62.972656 -40.574219 58.578125 -33.949219 54.332031 -29.625 C 50.101562 -25.191406 45.980469 -22.511719 42.195312 -21.5 Z M 42.195312 -21.5 "/></g></g></g><g fill="#ffffff" fill-opacity="1"><g transform="translate(296.558039, 213.105377)"><g><path d="M 10.726562 -40.636719 L -10.484375 1.292969 L 4.277344 -0.527344 C 9.265625 -11.136719 13.398438 -19.898438 16.644531 -27.035156 C 19.890625 -34.167969 22.664062 -39.832031 25.0625 -44.144531 C 27.371094 -48.339844 29.484375 -51.425781 31.425781 -53.292969 C 33.382812 -55.054688 35.429688 -56.070312 37.6875 -56.238281 C 39.105469 -56.195312 40.132812 -55.78125 40.695312 -54.765625 C 41.253906 -53.746094 41.183594 -52.542969 40.289062 -51.023438 L 27.246094 -28.234375 C 26.523438 -27.058594 25.824219 -25.667969 24.925781 -24.148438 C 24.042969 -22.515625 23.371094 -20.914062 22.703125 -19.3125 C 21.9375 -17.585938 21.386719 -15.890625 21.050781 -14.21875 C 20.710938 -12.550781 20.683594 -11.023438 21.070312 -9.660156 C 21.363281 -8.175781 22.054688 -6.960938 23.257812 -6.023438 C 24.472656 -4.976562 26.289062 -4.332031 28.707031 -4.089844 C 30.257812 -3.847656 31.96875 -4.058594 33.65625 -4.484375 C 35.339844 -4.90625 36.773438 -5.628906 38.148438 -6.773438 C 39.542969 -7.816406 40.882812 -9.285156 42.300781 -10.980469 C 43.613281 -12.664062 45.007812 -14.574219 46.386719 -16.589844 C 47.671875 -18.484375 48.851562 -20.367188 50.015625 -22.359375 C 51.089844 -24.230469 52.175781 -25.992188 53.058594 -27.621094 C 52.457031 -27.222656 51.773438 -26.59375 51.105469 -25.859375 C 50.730469 -25.378906 50.449219 -25.019531 50.0625 -24.644531 C 49.671875 -24.269531 49.285156 -23.898438 49.003906 -23.535156 C 48.226562 -22.789062 47.449219 -22.042969 46.648438 -21.507812 C 45.84375 -20.972656 45.015625 -20.65625 44.160156 -20.550781 C 42.875 -20.390625 42.15625 -20.953125 42.089844 -22.355469 C 41.945312 -23.535156 42.28125 -25.203125 43.085938 -27.476562 C 43.8125 -29.519531 44.832031 -31.816406 46.023438 -34.464844 C 47.230469 -37 48.4375 -39.539062 49.644531 -42.078125 C 50.757812 -44.496094 51.792969 -46.6875 52.621094 -48.746094 C 53.46875 -50.695312 53.9375 -52.164062 54.03125 -53.152344 C 54.007812 -55.105469 53.824219 -56.601562 53.238281 -57.832031 C 52.652344 -59.066406 51.984375 -60.066406 51.023438 -60.816406 C 48.886719 -62.292969 46.628906 -62.992188 44.234375 -63.019531 C 41.84375 -63.050781 39.410156 -62.535156 37.160156 -61.386719 C 34.804688 -60.226562 32.613281 -58.652344 30.484375 -56.542969 C 28.367188 -54.328125 26.597656 -51.9375 24.992188 -49.132812 C 25.476562 -52.234375 25.507812 -54.625 24.960938 -56.40625 C 24.429688 -58.078125 23.214844 -59.121094 21.316406 -59.539062 C 19.992188 -59.699219 18.402344 -59.394531 16.542969 -58.625 C 14.578125 -57.835938 12.261719 -56.355469 9.691406 -54.300781 L 9.316406 -54.691406 C 11.347656 -52.335938 12.386719 -50.074219 12.636719 -48.042969 C 12.660156 -46.957031 12.488281 -45.742188 12.191406 -44.621094 C 11.800781 -43.375 11.316406 -42.015625 10.726562 -40.636719 Z M 10.726562 -40.636719 "/></g></g></g></svg>