<svg xmlns="http://www.w3.org/2000/svg" xmlns:xlink="http://www.w3.org/1999/xlink" width="500" zoomAndPan="magnify" viewBox="0 0 375 374.999991" height="500" preserveAspectRatio="xMidYMid meet" version="1.0"><defs><clipPath id="6086d3d576"><path d="M 18.75 18.75 L 356.25 18.75 L 356.25 356.25 L 18.75 356.25 Z M 18.75 18.75 " clip-rule="nonzero"/></clipPath></defs><g clip-path="url(#6086d3d576)"><path fill="#ff3131" d="M 187.507812 356.273438 C 142.425781 356.273438 100.050781 338.71875 68.175781 306.84375 C 36.304688 274.972656 18.75 232.585938 18.75 187.507812 C 18.75 142.425781 36.304688 100.050781 68.175781 68.175781 C 100.050781 36.304688 142.433594 18.75 187.507812 18.75 C 232.578125 18.75 274.964844 36.304688 306.835938 68.175781 C 338.710938 100.050781 356.265625 142.433594 356.265625 187.507812 C 356.265625 232.578125 338.710938 274.964844 306.835938 306.835938 C 274.972656 338.71875 232.585938 356.273438 187.507812 356.273438 Z M 187.507812 30.375 C 100.867188 30.375 30.375 100.867188 30.375 187.507812 C 30.375 274.148438 100.867188 344.640625 187.507812 344.640625 C 274.148438 344.640625 344.640625 274.148438 344.640625 187.507812 C 344.640625 100.867188 274.15625 30.375 187.507812 30.375 Z M 187.507812 30.375 " fill-opacity="1" fill-rule="nonzero"/></g><path fill="#ff3131" d="M 155.765625 271.980469 C 153.316406 271.980469 150.851562 271.414062 148.550781 270.273438 C 143.023438 267.523438 139.597656 261.984375 139.597656 255.8125 L 139.597656 119.210938 C 139.597656 113.039062 143.03125 107.5 148.550781 104.75 C 154.066406 101.996094 160.5625 102.601562 165.484375 106.320312 L 255.875 174.628906 C 259.953125 177.710938 262.292969 182.410156 262.292969 187.515625 C 262.292969 192.621094 259.953125 197.320312 255.875 200.402344 L 165.484375 268.710938 C 162.617188 270.871094 159.207031 271.980469 155.765625 271.980469 Z M 155.804688 114.660156 C 154.882812 114.660156 154.136719 114.953125 153.734375 115.15625 C 152.984375 115.527344 151.222656 116.675781 151.222656 119.210938 L 151.222656 255.8125 C 151.222656 258.347656 152.976562 259.496094 153.734375 259.867188 C 154.484375 260.246094 156.460938 260.953125 158.484375 259.425781 L 248.878906 191.117188 C 250.015625 190.257812 250.675781 188.941406 250.675781 187.507812 C 250.675781 186.074219 250.023438 184.757812 248.878906 183.894531 L 158.476562 115.597656 C 157.539062 114.886719 156.609375 114.660156 155.804688 114.660156 Z M 155.804688 114.660156 " fill-opacity="1" fill-rule="nonzero"/></svg>